<svg width="30" height="30" viewBox="0 0 30 30" fill="none" xmlns="http://www.w3.org/2000/svg">
<path d="M2 25V19.7998C2.00011 19.2476 2.44778 18.7998 3 18.7998C3.55222 18.7998 3.99989 19.2476 4 19.7998V25C4 25.2652 4.10543 25.5195 4.29297 25.707C4.48051 25.8946 4.73478 26 5 26H10.2002C10.7524 26.0001 11.2002 26.4478 11.2002 27C11.2002 27.5522 10.7524 27.9999 10.2002 28H5C4.20435 28 3.44151 27.6837 2.87891 27.1211C2.3163 26.5585 2 25.7957 2 25ZM26 25V19.7998C26.0001 19.2476 26.4478 18.7998 27 18.7998C27.5522 18.7998 27.9999 19.2476 28 19.7998V25C28 25.7957 27.6837 26.5585 27.1211 27.1211C26.5585 27.6837 25.7957 28 25 28H19.7998C19.2476 27.9999 18.7998 27.5522 18.7998 27C18.7998 26.4478 19.2476 26.0001 19.7998 26H25C25.2652 26 25.5195 25.8946 25.707 25.707C25.8946 25.5195 26 25.2652 26 25ZM2 10.2002V5C2 4.20435 2.3163 3.44152 2.87891 2.87891C3.44152 2.3163 4.20435 2 5 2H10.2002C10.7524 2.00011 11.2002 2.44778 11.2002 3C11.2002 3.55222 10.7524 3.99989 10.2002 4H5C4.73478 4 4.4805 4.10543 4.29297 4.29297C4.10543 4.4805 4 4.73478 4 5V10.2002C3.99989 10.7524 3.55222 11.2002 3 11.2002C2.44778 11.2002 2.00011 10.7524 2 10.2002Z" fill="black"/>
<path d="M22.116 12.5C21.9556 12.5 21.8153 12.4459 21.6949 12.3376C21.5746 12.2293 21.4984 12.0889 21.4664 11.9165C21.3661 11.2468 21.2598 10.6693 21.1475 10.1841C21.0393 9.69883 20.9089 9.28778 20.7565 8.95091C20.6042 8.61405 20.4157 8.33333 20.1911 8.10876C19.9665 7.88017 19.6878 7.6937 19.355 7.54933C19.0221 7.40496 18.6191 7.28264 18.1459 7.18239C17.6767 7.08213 17.1172 6.98789 16.4676 6.89966C16.2911 6.8756 16.1467 6.80342 16.0345 6.68311C15.9222 6.55879 15.866 6.41442 15.866 6.25C15.866 6.08157 15.9222 5.9372 16.0345 5.81689C16.1508 5.69257 16.2971 5.61838 16.4736 5.59432C17.2516 5.5061 17.9052 5.40383 18.4346 5.28754C18.968 5.16723 19.4071 5.00481 19.752 4.80029C20.0969 4.59175 20.3756 4.31104 20.5881 3.95813C20.8007 3.60523 20.9731 3.15608 21.1054 2.61068C21.2378 2.06128 21.3581 1.38555 21.4664 0.583494C21.4944 0.411052 21.5686 0.270693 21.6889 0.162416C21.8092 0.0541386 21.9516 0 22.116 0C22.2804 0 22.4208 0.0541386 22.5371 0.162416C22.6574 0.266683 22.7316 0.405037 22.7597 0.577478C22.884 1.37953 23.0143 2.05326 23.1507 2.59865C23.287 3.14405 23.4595 3.59119 23.668 3.94009C23.8805 4.28898 24.1573 4.56769 24.4981 4.77623C24.843 4.98075 25.2801 5.14517 25.8095 5.26949C26.3388 5.3898 26.9905 5.49807 27.7645 5.59432C27.9369 5.61838 28.0793 5.69257 28.1916 5.81689C28.3079 5.9372 28.366 6.08157 28.366 6.25C28.366 6.41442 28.3079 6.55879 28.1916 6.68311C28.0753 6.80743 27.9329 6.87961 27.7645 6.89966C26.9865 6.98789 26.3308 7.09216 25.7974 7.21246C25.2641 7.32876 24.825 7.49118 24.4801 7.69971C24.1352 7.90824 23.8565 8.18896 23.6439 8.54187C23.4314 8.89076 23.259 9.33991 23.1266 9.88932C22.9943 10.4347 22.872 11.1084 22.7597 11.9105C22.7356 12.0829 22.6634 12.2233 22.5431 12.3316C22.4228 12.4439 22.2804 12.5 22.116 12.5Z" fill="black"/>
<path d="M21.2483 14.6839H22.398V20.9548H24.2897V22H21.2483V14.6839Z" fill="black"/>
<path d="M15.6245 14.6839H17.2654L17.997 19.9201H18.0179L18.7495 14.6839H20.3904V22H19.3034V16.4606H19.2825L18.4464 22H17.4848L16.6487 16.4606H16.6278V22H15.6245V14.6839Z" fill="black"/>
<path d="M12.7162 15.729H11.5143V14.6839H15.0678V15.729H13.8659V22H12.7162V15.729Z" fill="black"/>
<path d="M7.42852 14.6839H8.57819V17.6626H9.81148V14.6839H10.9612V22H9.81148V18.7077H8.57819V22H7.42852V14.6839Z" fill="black"/>
</svg>
