<svg width="30" height="30" viewBox="0 0 30 30" fill="none" xmlns="http://www.w3.org/2000/svg">
<path d="M2 25V19.7998C2.00011 19.2476 2.44778 18.7998 3 18.7998C3.55222 18.7998 3.99989 19.2476 4 19.7998V25C4 25.2652 4.10543 25.5195 4.29297 25.707C4.48051 25.8946 4.73478 26 5 26H10.2002C10.7524 26.0001 11.2002 26.4478 11.2002 27C11.2002 27.5522 10.7524 27.9999 10.2002 28H5C4.20435 28 3.44151 27.6837 2.87891 27.1211C2.3163 26.5585 2 25.7957 2 25ZM26 25V19.7998C26.0001 19.2476 26.4478 18.7998 27 18.7998C27.5522 18.7998 27.9999 19.2476 28 19.7998V25C28 25.7957 27.6837 26.5585 27.1211 27.1211C26.5585 27.6837 25.7957 28 25 28H19.7998C19.2476 27.9999 18.7998 27.5522 18.7998 27C18.7998 26.4478 19.2476 26.0001 19.7998 26H25C25.2652 26 25.5195 25.8946 25.707 25.707C25.8946 25.5195 26 25.2652 26 25ZM2 10.2002V5C2 4.20435 2.3163 3.44152 2.87891 2.87891C3.44152 2.3163 4.20435 2 5 2H10.2002C10.7524 2.00011 11.2002 2.44778 11.2002 3C11.2002 3.55222 10.7524 3.99989 10.2002 4H5C4.73478 4 4.4805 4.10543 4.29297 4.29297C4.10543 4.4805 4 4.73478 4 5V10.2002C3.99989 10.7524 3.55222 11.2002 3 11.2002C2.44778 11.2002 2.00011 10.7524 2 10.2002Z" fill="black"/>
<path d="M22.25 13.75C22.0896 13.75 21.9492 13.6959 21.8289 13.5876C21.7086 13.4793 21.6324 13.3389 21.6003 13.1665C21.5001 12.4968 21.3938 11.9193 21.2815 11.4341C21.1732 10.9488 21.0429 10.5378 20.8905 10.2009C20.7381 9.86405 20.5496 9.58333 20.3251 9.35876C20.1005 9.13017 19.8218 8.9437 19.4889 8.79933C19.1561 8.65496 18.753 8.53264 18.2798 8.43239C17.8106 8.33213 17.2512 8.23789 16.6015 8.14966C16.4251 8.1256 16.2807 8.05342 16.1684 7.93311C16.0561 7.80879 16 7.66442 16 7.5C16 7.33157 16.0561 7.1872 16.1684 7.06689C16.2847 6.94257 16.4311 6.86838 16.6076 6.84432C17.3855 6.7561 18.0392 6.65383 18.5686 6.53754C19.1019 6.41723 19.5411 6.25481 19.8859 6.05029C20.2308 5.84175 20.5095 5.56104 20.7221 5.20813C20.9346 4.85523 21.1071 4.40608 21.2394 3.86068C21.3718 3.31128 21.4921 2.63555 21.6003 1.83349C21.6284 1.66105 21.7026 1.52069 21.8229 1.41242C21.9432 1.30414 22.0856 1.25 22.25 1.25C22.4144 1.25 22.5548 1.30414 22.6711 1.41242C22.7914 1.51668 22.8656 1.65504 22.8936 1.82748C23.018 2.62953 23.1483 3.30326 23.2846 3.84865C23.421 4.39405 23.5934 4.84119 23.802 5.19009C24.0145 5.53898 24.2912 5.81769 24.6321 6.02623C24.977 6.23075 25.4141 6.39517 25.9435 6.51949C26.4728 6.6398 27.1245 6.74807 27.8985 6.84432C28.0709 6.86838 28.2133 6.94257 28.3256 7.06689C28.4418 7.1872 28.5 7.33157 28.5 7.5C28.5 7.66442 28.4418 7.80879 28.3256 7.93311C28.2093 8.05743 28.0669 8.12961 27.8985 8.14966C27.1205 8.23789 26.4648 8.34216 25.9314 8.46246C25.3981 8.57876 24.9589 8.74118 24.6141 8.94971C24.2692 9.15824 23.9905 9.43896 23.7779 9.79187C23.5654 10.1408 23.3929 10.5899 23.2606 11.1393C23.1282 11.6847 23.0059 12.3584 22.8936 13.1605C22.8696 13.3329 22.7974 13.4733 22.6771 13.5816C22.5568 13.6939 22.4144 13.75 22.25 13.75Z" fill="black"/>
<path d="M22 21C22.5523 21 23 21.4477 23 22C23 22.5523 22.5523 23 22 23H8C7.44772 23 7 22.5523 7 22C7 21.4477 7.44772 21 8 21H22ZM15.9541 16C16.5064 16 16.9541 16.4477 16.9541 17C16.9541 17.5523 16.5064 18 15.9541 18H8C7.44772 18 7 17.5523 7 17C7 16.4477 7.44772 16 8 16H15.9541Z" fill="black"/>
</svg>
