<svg width="30" height="30" viewBox="0 0 30 30" fill="none" xmlns="http://www.w3.org/2000/svg">
<path fill-rule="evenodd" clip-rule="evenodd" d="M27 16.5C27.5523 16.5 28 16.9477 28 17.5V25.5C28 26.163 27.7366 26.7989 27.2678 27.2678C26.7989 27.7366 26.163 28 25.5 28H4.5C3.83696 28 3.20107 27.7366 2.73223 27.2678C2.26339 26.7989 2 26.163 2 25.5V4.5C2 3.83696 2.26339 3.20107 2.73223 2.73223C3.20107 2.26339 3.83696 2 4.5 2H12C12.5523 2 13 2.44772 13 3C13 3.55228 12.5523 4 12 4H4.5C4.36739 4 4.24021 4.05268 4.14645 4.14645C4.05268 4.24021 4 4.36739 4 4.5V16.586L7.293 13.293C7.38792 13.1981 7.50097 13.1233 7.6254 13.0731C7.74984 13.0228 7.88312 12.9981 8.0173 13.0004C8.15149 13.0028 8.28383 13.0321 8.40644 13.0867C8.52906 13.1412 8.63943 13.2199 8.731 13.318L15.75 20.836L21.293 17.293C21.4805 17.1055 21.7348 17.0002 22 17.0002C22.2652 17.0002 22.5195 17.1055 22.707 17.293L26 18.586V17.5C26 16.9477 26.4477 16.5 27 16.5ZM4 19.414V25.5C4 25.6326 4.05268 25.7598 4.14645 25.8536C4.24021 25.9473 4.36739 26 4.5 26H17.747L14.989 22.952L7.975 15.439L4 19.414ZM20.445 26H25.5C25.6326 26 25.7598 25.9473 25.8536 25.8536C25.9473 25.7598 26 25.6326 26 25.5V21.414L22 19.414L17.105 22.31L20.445 26Z" fill="black"/>
<path d="M22.25 13.75C22.0896 13.75 21.9492 13.6959 21.8289 13.5876C21.7086 13.4793 21.6324 13.3389 21.6003 13.1665C21.5001 12.4968 21.3938 11.9193 21.2815 11.4341C21.1732 10.9488 21.0429 10.5378 20.8905 10.2009C20.7381 9.86405 20.5496 9.58333 20.3251 9.35876C20.1005 9.13017 19.8218 8.9437 19.4889 8.79933C19.1561 8.65496 18.753 8.53264 18.2798 8.43239C17.8106 8.33213 17.2512 8.23789 16.6015 8.14966C16.4251 8.1256 16.2807 8.05342 16.1684 7.93311C16.0561 7.80879 16 7.66442 16 7.5C16 7.33157 16.0561 7.1872 16.1684 7.06689C16.2847 6.94257 16.4311 6.86838 16.6076 6.84432C17.3855 6.7561 18.0392 6.65383 18.5686 6.53754C19.1019 6.41723 19.5411 6.25481 19.8859 6.05029C20.2308 5.84175 20.5095 5.56104 20.7221 5.20813C20.9346 4.85523 21.1071 4.40608 21.2394 3.86068C21.3717 3.31128 21.4921 2.63555 21.6003 1.83349C21.6284 1.66105 21.7026 1.52069 21.8229 1.41242C21.9432 1.30414 22.0856 1.25 22.25 1.25C22.4144 1.25 22.5548 1.30414 22.6711 1.41242C22.7914 1.51668 22.8656 1.65504 22.8936 1.82748C23.018 2.62953 23.1483 3.30326 23.2846 3.84865C23.421 4.39405 23.5934 4.84119 23.802 5.19009C24.0145 5.53898 24.2912 5.81769 24.6321 6.02623C24.977 6.23075 25.4141 6.39517 25.9434 6.51949C26.4728 6.6398 27.1245 6.74807 27.8985 6.84432C28.0709 6.86838 28.2133 6.94257 28.3255 7.06689C28.4418 7.1872 28.5 7.33157 28.5 7.5C28.5 7.66442 28.4418 7.80879 28.3255 7.93311C28.2093 8.05743 28.0669 8.12961 27.8985 8.14966C27.1205 8.23789 26.4648 8.34216 25.9314 8.46246C25.3981 8.57876 24.9589 8.74118 24.614 8.94971C24.2692 9.15824 23.9905 9.43896 23.7779 9.79187C23.5654 10.1408 23.3929 10.5899 23.2606 11.1393C23.1282 11.6847 23.0059 12.3584 22.8936 13.1605C22.8696 13.3329 22.7974 13.4733 22.6771 13.5816C22.5568 13.6939 22.4144 13.75 22.25 13.75Z" fill="black"/>
</svg>
