<svg width="30" height="30" viewBox="0 0 30 30" fill="none" xmlns="http://www.w3.org/2000/svg">
<path fill-rule="evenodd" clip-rule="evenodd" d="M27 16.5C27.5523 16.5 28 16.9477 28 17.5V25.5C28 26.163 27.7366 26.7989 27.2678 27.2678C26.7989 27.7366 26.163 28 25.5 28H4.5C3.83696 28 3.20107 27.7366 2.73223 27.2678C2.26339 26.7989 2 26.163 2 25.5V4.5C2 3.83696 2.26339 3.20107 2.73223 2.73223C3.20107 2.26339 3.83696 2 4.5 2H12C12.5523 2 13 2.44772 13 3C13 3.55228 12.5523 4 12 4H4.5C4.36739 4 4.24021 4.05268 4.14645 4.14645C4.05268 4.24021 4 4.36739 4 4.5V16.586L7.293 13.293C7.38792 13.1981 7.50097 13.1233 7.6254 13.0731C7.74984 13.0228 7.88312 12.9981 8.0173 13.0004C8.15149 13.0028 8.28383 13.0321 8.40644 13.0867C8.52906 13.1412 8.63943 13.2199 8.731 13.318L15.75 20.836L21.293 17.293C21.4805 17.1055 21.7348 17.0002 22 17.0002C22.2652 17.0002 22.5195 17.1055 22.707 17.293L26 18.586V17.5C26 16.9477 26.4477 16.5 27 16.5ZM4 19.414V25.5C4 25.6326 4.05268 25.7598 4.14645 25.8536C4.24021 25.9473 4.36739 26 4.5 26H17.747L14.989 22.952L7.975 15.439L4 19.414ZM20.445 26H25.5C25.6326 26 25.7598 25.9473 25.8536 25.8536C25.9473 25.7598 26 25.6326 26 25.5V21.414L22 19.414L17.105 22.31L20.445 26Z" fill="black"/>
<path d="M22.25 12.5C22.0896 12.5 21.9492 12.4459 21.8289 12.3376C21.7086 12.2293 21.6324 12.0889 21.6003 11.9165C21.5001 11.2468 21.3938 10.6693 21.2815 10.1841C21.1732 9.6988 21.0429 9.2878 20.8905 8.9509C20.7381 8.61405 20.5496 8.33333 20.3251 8.10876C20.1005 7.88017 19.8218 7.6937 19.4889 7.54933C19.1561 7.40496 18.753 7.28264 18.2798 7.18239C17.8106 7.08213 17.2512 6.98789 16.6015 6.89966C16.4251 6.8756 16.2807 6.80342 16.1684 6.68311C16.0561 6.55879 16 6.41442 16 6.25C16 6.08157 16.0561 5.9372 16.1684 5.81689C16.2847 5.69257 16.4311 5.61838 16.6076 5.59432C17.3855 5.5061 18.0392 5.40383 18.5686 5.28754C19.1019 5.16723 19.5411 5.00481 19.8859 4.80029C20.2308 4.59175 20.5095 4.31104 20.7221 3.95813C20.9346 3.60523 21.1071 3.15608 21.2394 2.61068C21.3717 2.06128 21.4921 1.38555 21.6003 0.58349C21.6284 0.41105 21.7026 0.27069 21.8229 0.16242C21.9432 0.05414 22.0856 0 22.25 0C22.4144 0 22.5548 0.05414 22.6711 0.16242C22.7914 0.26668 22.8656 0.40504 22.8936 0.57748C23.018 1.37953 23.1483 2.05326 23.2846 2.59865C23.421 3.14405 23.5934 3.59119 23.802 3.94009C24.0145 4.28898 24.2912 4.56769 24.6321 4.77623C24.977 4.98075 25.4141 5.14517 25.9434 5.26949C26.4728 5.3898 27.1245 5.49807 27.8985 5.59432C28.0709 5.61838 28.2133 5.69257 28.3255 5.81689C28.4418 5.9372 28.5 6.08157 28.5 6.25C28.5 6.41442 28.4418 6.55879 28.3255 6.68311C28.2093 6.80743 28.0669 6.87961 27.8985 6.89966C27.1205 6.98789 26.4648 7.09216 25.9314 7.21246C25.3981 7.32876 24.9589 7.49118 24.614 7.69971C24.2692 7.90824 23.9905 8.18896 23.7779 8.54187C23.5654 8.8908 23.3929 9.3399 23.2606 9.8893C23.1282 10.4347 23.0059 11.1084 22.8936 11.9105C22.8696 12.0829 22.7974 12.2233 22.6771 12.3316C22.5568 12.4439 22.4144 12.5 22.25 12.5Z" fill="black"/>
</svg>
