<svg width="30" height="30" viewBox="0 0 30 30" fill="none" xmlns="http://www.w3.org/2000/svg">
<path d="M2 25V5C2 4.20435 2.3163 3.44152 2.87891 2.87891C3.44152 2.3163 4.20435 2 5 2H14C14.5523 2 15 2.44772 15 3C15 3.55228 14.5523 4 14 4H5C4.73478 4 4.4805 4.10543 4.29297 4.29297C4.10543 4.4805 4 4.73478 4 5V25C4 25.2652 4.10543 25.5195 4.29297 25.707C4.48051 25.8946 4.73478 26 5 26H25C25.2652 26 25.5195 25.8946 25.707 25.707C25.8946 25.5195 26 25.2652 26 25V15.5C26 14.9477 26.4477 14.5 27 14.5C27.5523 14.5 28 14.9477 28 15.5V25C28 25.7957 27.6837 26.5585 27.1211 27.1211C26.5585 27.6837 25.7957 28 25 28H5C4.20435 28 3.44152 27.6837 2.87891 27.1211C2.3163 26.5585 2 25.7957 2 25Z" fill="black"/>
<path d="M23.25 12.5C23.0896 12.5 22.9492 12.4459 22.8289 12.3376C22.7086 12.2293 22.6324 12.0889 22.6003 11.9165C22.5001 11.2468 22.3938 10.6693 22.2815 10.1841C22.1732 9.69883 22.0429 9.28778 21.8905 8.95091C21.7381 8.61405 21.5496 8.33333 21.3251 8.10876C21.1005 7.88017 20.8218 7.6937 20.4889 7.54933C20.1561 7.40496 19.753 7.28264 19.2798 7.18239C18.8106 7.08213 18.2512 6.98789 17.6015 6.89966C17.4251 6.8756 17.2807 6.80342 17.1684 6.68311C17.0561 6.55879 17 6.41442 17 6.25C17 6.08157 17.0561 5.9372 17.1684 5.81689C17.2847 5.69257 17.4311 5.61838 17.6076 5.59432C18.3855 5.5061 19.0392 5.40383 19.5686 5.28754C20.1019 5.16723 20.5411 5.00481 20.8859 4.80029C21.2308 4.59175 21.5095 4.31104 21.7221 3.95813C21.9346 3.60523 22.1071 3.15608 22.2394 2.61068C22.3718 2.06128 22.4921 1.38555 22.6003 0.583494C22.6284 0.411052 22.7026 0.270693 22.8229 0.162416C22.9432 0.0541386 23.0856 0 23.25 0C23.4144 0 23.5548 0.0541386 23.6711 0.162416C23.7914 0.266683 23.8656 0.405037 23.8936 0.577478C24.018 1.37953 24.1483 2.05326 24.2846 2.59865C24.421 3.14405 24.5934 3.59119 24.802 3.94009C25.0145 4.28898 25.2912 4.56769 25.6321 4.77623C25.977 4.98075 26.4141 5.14517 26.9435 5.26949C27.4728 5.3898 28.1245 5.49807 28.8985 5.59432C29.0709 5.61838 29.2133 5.69257 29.3256 5.81689C29.4418 5.9372 29.5 6.08157 29.5 6.25C29.5 6.41442 29.4418 6.55879 29.3256 6.68311C29.2093 6.80743 29.0669 6.87961 28.8985 6.89966C28.1205 6.98789 27.4648 7.09216 26.9314 7.21246C26.3981 7.32876 25.9589 7.49118 25.6141 7.69971C25.2692 7.90824 24.9905 8.18896 24.7779 8.54187C24.5654 8.89076 24.3929 9.33991 24.2606 9.88932C24.1282 10.4347 24.0059 11.1084 23.8936 11.9105C23.8696 12.0829 23.7974 12.2233 23.6771 12.3316C23.5568 12.4439 23.4144 12.5 23.25 12.5Z" fill="black"/>
<path d="M18.5242 15.9995C18.8015 15.9995 19.029 15.774 19.0014 15.4982C18.8856 14.3451 18.3746 13.2674 17.5551 12.448C16.7356 11.6286 15.6579 11.1178 14.5049 11.0023C14.2286 10.9747 14.0036 11.2022 14.0036 11.4794V15.4977C14.0036 15.6309 14.0565 15.7587 14.1507 15.8529C14.2449 15.9471 14.3727 16 14.5059 16L18.5242 15.9995Z" stroke="black" stroke-width="1.8" stroke-linecap="round" stroke-linejoin="round"/>
<path d="M19.0036 18.4958C18.6394 19.3593 18.0696 20.1202 17.3441 20.712C16.6187 21.3038 15.7597 21.7085 14.8422 21.8906C13.9247 22.0728 12.9766 22.0269 12.0809 21.7569C11.1852 21.487 10.3691 21.0012 9.70394 20.342C9.0388 19.6829 8.54487 18.8705 8.26533 17.9758C7.9858 17.0811 7.92917 16.1314 8.1004 15.2097C8.27163 14.2881 8.66551 13.4224 9.24759 12.6886C9.82967 11.9547 10.5822 11.375 11.4395 11" stroke="black" stroke-width="1.8" stroke-linecap="round" stroke-linejoin="round"/>
</svg>
